# xmcd
#
# Track frame offsets: 
#        150
#        16191
#        35663
#        53764
#        71865
#        93827
#        110551
#        141713
#        162040
#        174612
#
# Disc length: 2621 seconds
#
# Revision: 0
# Processed by: cddbd v1.5.2PL0 Copyright (c) Steve Scherf et al.
# Submitted via: ExactAudioCopyFreeDBPlugin 1.0
#
DISCID=890a3b0a
DTITLE=The Jay Ottaway Band - Three Times A Day
DYEAR=1900
DGENRE=Blues and Folk
TTITLE0=Far Away From You
TTITLE1=Three Times A Day
TTITLE2=Fallen Idol
TTITLE3=My Life With You
TTITLE4=Go So Wrong
TTITLE5=Don't You Know
TTITLE6=Suprise
TTITLE7=Unsinkable Ship
TTITLE8=Dancing On Your Grave
TTITLE9=Waiting For Some Peace
EXTD=
EXTT0=
EXTT1=
EXTT2=
EXTT3=
EXTT4=
EXTT5=
EXTT6=
EXTT7=
EXTT8=
EXTT9=
PLAYORDER=
